# xmcd
#
# Track frame offsets: 
#        180
#        16074
#        35842
#        53357
#        73734
#        87069
#        104824
#        122535
#        139531
#        156709
#        176380
#        191264
#
# Disc length: 2778 seconds
#
# Revision: 9
# Processed by: cddbd v1.5.2PL0 Copyright (c) Steve Scherf et al.
# Submitted via: ExactAudioCopy v1.0b4
#
DISCID=9a0ad80c
DTITLE=Roberto Carlos - Amigo
DYEAR=1977
DGENRE=Mpb
TTITLE0=Amigo
TTITLE1=Nosso Amor 
TTITLE2=Falando Serio
TTITLE3=Muito Romantico
TTITLE4=Solamente Uma Vez
TTITLE5=Ternura
TTITLE6=Cavalgada
TTITLE7=Não Se Esqueça De Mim
TTITLE8=Jovens Tardes De Domingo
TTITLE9=Prá Ser Só Minha Mulher
TTITLE10=Outra Vez
TTITLE11=Sinto Muito, Minha Amiga
EXTD=YEAR: 2005
EXTT0=Amigo
EXTT1=Nosso Amor 
EXTT2=Falando Serio
EXTT3=Muito Romantico
EXTT4=Solamente Uma Vez
EXTT5=Ternura
EXTT6=Cavalgada
EXTT7=N_o Se Esque_a De Mim
EXTT8=Jovens Tardes De Domingo
EXTT9=Pr_ Ser S_ Minha Mulher
EXTT10=Outra Vez
EXTT11=Sinto Muito, Minha Amiga
PLAYORDER=
